<svg width="88" height="28" viewBox="0 0 88 28" fill="none" xmlns="http://www.w3.org/2000/svg">
<path d="M11.2913 12.0948C11.2913 11.5924 11.218 11.1215 11.0715 10.682C10.9355 10.232 10.7262 9.83953 10.4436 9.50465C10.161 9.16977 9.8 8.90814 9.36047 8.71977C8.9314 8.52093 8.42907 8.42151 7.85349 8.42151C6.73372 8.42151 5.84942 8.7407 5.20058 9.37907C4.56221 10.0174 4.15407 10.9227 3.97616 12.0948H11.2913ZM3.89767 14.4337C3.96047 15.2605 4.10698 15.9773 4.33721 16.5843C4.56744 17.1808 4.87093 17.6779 5.24768 18.0756C5.62442 18.4628 6.06919 18.7558 6.58198 18.9547C7.10523 19.143 7.68082 19.2372 8.30872 19.2372C8.93663 19.2372 9.47558 19.164 9.92558 19.0174C10.386 18.8709 10.7837 18.7087 11.1186 18.5308C11.464 18.3529 11.7622 18.1907 12.0134 18.0442C12.275 17.8977 12.5262 17.8244 12.7669 17.8244C13.0913 17.8244 13.332 17.9448 13.489 18.1855L14.6035 19.5983C14.1744 20.1006 13.693 20.5244 13.1593 20.8698C12.6256 21.2047 12.0657 21.4767 11.4797 21.686C10.9041 21.8849 10.3128 22.0262 9.70582 22.1099C9.1093 22.1936 8.52849 22.2355 7.96337 22.2355C6.84361 22.2355 5.80233 22.0523 4.83954 21.686C3.87674 21.3093 3.03954 20.7599 2.32791 20.0378C1.61628 19.3052 1.0564 18.4052 0.648256 17.3378C0.240116 16.2599 0.0360466 15.0145 0.0360466 13.6017C0.0360466 12.5029 0.213954 11.4721 0.569768 10.5093C0.925582 9.53604 1.43314 8.6936 2.09244 7.98197C2.76221 7.25988 3.57326 6.68953 4.52558 6.27093C5.48837 5.85232 6.57151 5.64302 7.775 5.64302C8.79012 5.64302 9.72675 5.80523 10.5849 6.12965C11.443 6.45407 12.1808 6.93023 12.7983 7.55814C13.4157 8.17558 13.8971 8.93953 14.2424 9.85C14.5983 10.75 14.7762 11.7808 14.7762 12.9424C14.7762 13.5285 14.7134 13.9262 14.5878 14.1355C14.4622 14.3343 14.2215 14.4337 13.8657 14.4337H3.89767ZM20.6841 7.87209C21.0086 7.54767 21.3487 7.24942 21.7045 6.97732C22.0708 6.69477 22.4527 6.4593 22.8504 6.27093C23.2586 6.07209 23.6929 5.92035 24.1533 5.8157C24.6138 5.70058 25.1161 5.64302 25.6603 5.64302C26.5394 5.64302 27.319 5.79477 27.9993 6.09825C28.6795 6.39128 29.2446 6.80988 29.6946 7.35407C30.1551 7.88779 30.5004 8.53139 30.7306 9.28488C30.9713 10.0279 31.0917 10.8494 31.0917 11.7494V22H27.2144V11.7494C27.2144 10.7657 26.9894 10.007 26.5394 9.47325C26.0894 8.92907 25.4039 8.65698 24.483 8.65698C23.8132 8.65698 23.1853 8.80872 22.5992 9.11221C22.0132 9.4157 21.4586 9.82907 20.9353 10.3523V22H17.058V5.89418H19.4283C19.9306 5.89418 20.2603 6.12965 20.4173 6.60058L20.6841 7.87209ZM48.3523 5.89418L39.5773 26.4267C39.4621 26.6988 39.3104 26.9029 39.122 27.039C38.9441 27.1855 38.6668 27.2587 38.2901 27.2587H35.4017L38.4156 20.7913L31.9011 5.89418H35.3075C35.611 5.89418 35.8465 5.96744 36.0139 6.11395C36.1918 6.26046 36.3226 6.42791 36.4063 6.61628L39.8284 14.9674C39.9435 15.25 40.0377 15.5326 40.111 15.8151C40.1947 16.0977 40.2732 16.3855 40.3465 16.6785C40.4406 16.3855 40.5348 16.0977 40.629 15.8151C40.7232 15.5221 40.8278 15.2343 40.943 14.9517L44.1767 6.61628C44.2604 6.40698 44.3965 6.2343 44.5848 6.09825C44.7837 5.96221 45.0034 5.89418 45.2441 5.89418H48.3523ZM57.7905 15.1244C56.6707 15.1767 55.7289 15.2762 54.9649 15.4227C54.201 15.5587 53.5887 15.7366 53.1283 15.9564C52.6678 16.1762 52.3382 16.4326 52.1393 16.7256C51.9405 17.0186 51.8411 17.3378 51.8411 17.6831C51.8411 18.3634 52.0399 18.85 52.4376 19.143C52.8457 19.436 53.3742 19.5826 54.0231 19.5826C54.8184 19.5826 55.5039 19.4413 56.0794 19.1587C56.6655 18.8657 57.2358 18.4262 57.7905 17.8401V15.1244ZM48.9056 8.13895C50.7579 6.4436 52.987 5.59593 55.5928 5.59593C56.5347 5.59593 57.3771 5.7529 58.1201 6.06686C58.8632 6.37035 59.4911 6.79942 60.0039 7.35407C60.5167 7.89825 60.9039 8.55232 61.1655 9.31628C61.4376 10.0802 61.5736 10.9174 61.5736 11.8279V22H59.8155C59.4492 22 59.1667 21.9477 58.9678 21.843C58.769 21.7279 58.612 21.5029 58.4969 21.168L58.1515 20.0064C57.7434 20.3727 57.3457 20.6971 56.9585 20.9797C56.5713 21.2517 56.1684 21.482 55.7498 21.6703C55.3312 21.8587 54.8812 22 54.3998 22.0942C53.9289 22.1988 53.4056 22.2512 52.83 22.2512C52.1498 22.2512 51.5219 22.1622 50.9463 21.9843C50.3707 21.7959 49.8736 21.5186 49.455 21.1523C49.0364 20.786 48.712 20.3308 48.4818 19.7866C48.2515 19.2424 48.1364 18.6093 48.1364 17.8872C48.1364 17.4791 48.2044 17.0762 48.3405 16.6785C48.4765 16.2703 48.6963 15.8831 48.9998 15.5169C49.3137 15.1506 49.7167 14.8052 50.2085 14.4808C50.7004 14.1564 51.3021 13.8738 52.0137 13.6331C52.7358 13.3924 53.5731 13.1988 54.5254 13.0523C55.4777 12.8953 56.5661 12.8012 57.7905 12.7698V11.8279C57.7905 10.75 57.5603 9.95465 57.0998 9.44186C56.6393 8.9186 55.9748 8.65698 55.1062 8.65698C54.4783 8.65698 53.955 8.73023 53.5364 8.87674C53.1283 9.02325 52.7672 9.1907 52.4533 9.37907C52.1393 9.55697 51.8515 9.71918 51.5899 9.8657C51.3387 10.0122 51.0562 10.0855 50.7422 10.0855C50.4701 10.0855 50.2399 10.0174 50.0515 9.88139C49.8632 9.73488 49.7114 9.56744 49.5963 9.37907L48.9056 8.13895ZM69.7514 22.2512C68.3491 22.2512 67.2712 21.8587 66.5177 21.0738C65.7746 20.2785 65.4031 19.1849 65.4031 17.793V8.79825H63.7549C63.5456 8.79825 63.3677 8.73023 63.2212 8.59418C63.0746 8.45814 63.0014 8.25407 63.0014 7.98197V6.4436L65.5915 6.01977L66.4078 1.62442C66.4601 1.41511 66.5595 1.2529 66.706 1.13779C66.8526 1.02267 67.0409 0.965114 67.2712 0.965114H69.2805V6.03546H73.5816V8.79825H69.2805V17.5262C69.2805 18.0285 69.4008 18.4209 69.6415 18.7035C69.8927 18.986 70.2328 19.1273 70.6619 19.1273C70.9026 19.1273 71.1014 19.1012 71.2584 19.0488C71.4258 18.986 71.5671 18.9233 71.6822 18.8605C71.8078 18.7977 71.9177 18.7401 72.0119 18.6878C72.106 18.625 72.2002 18.5936 72.2944 18.5936C72.4095 18.5936 72.5037 18.625 72.577 18.6878C72.6502 18.7401 72.7287 18.8238 72.8124 18.939L73.9741 20.8227C73.4089 21.2936 72.7601 21.6494 72.0276 21.8901C71.295 22.1308 70.5363 22.2512 69.7514 22.2512ZM83.9443 15.1244C82.8245 15.1767 81.8827 15.2762 81.1187 15.4227C80.3548 15.5587 79.7425 15.7366 79.2821 15.9564C78.8216 16.1762 78.492 16.4326 78.2931 16.7256C78.0943 17.0186 77.9949 17.3378 77.9949 17.6831C77.9949 18.3634 78.1937 18.85 78.5914 19.143C78.9995 19.436 79.528 19.5826 80.1768 19.5826C80.9722 19.5826 81.6577 19.4413 82.2332 19.1587C82.8193 18.8657 83.3896 18.4262 83.9443 17.8401V15.1244ZM75.0594 8.13895C76.9117 6.4436 79.1408 5.59593 81.7466 5.59593C82.6885 5.59593 83.5309 5.7529 84.2739 6.06686C85.017 6.37035 85.6449 6.79942 86.1577 7.35407C86.6705 7.89825 87.0577 8.55232 87.3193 9.31628C87.5914 10.0802 87.7274 10.9174 87.7274 11.8279V22H85.9693C85.603 22 85.3205 21.9477 85.1216 21.843C84.9228 21.7279 84.7658 21.5029 84.6507 21.168L84.3053 20.0064C83.8972 20.3727 83.4995 20.6971 83.1123 20.9797C82.7251 21.2517 82.3222 21.482 81.9036 21.6703C81.485 21.8587 81.035 22 80.5536 22.0942C80.0827 22.1988 79.5594 22.2512 78.9838 22.2512C78.3036 22.2512 77.6757 22.1622 77.1001 21.9843C76.5245 21.7959 76.0274 21.5186 75.6088 21.1523C75.1902 20.786 74.8658 20.3308 74.6356 19.7866C74.4053 19.2424 74.2902 18.6093 74.2902 17.8872C74.2902 17.4791 74.3582 17.0762 74.4943 16.6785C74.6303 16.2703 74.8501 15.8831 75.1536 15.5169C75.4675 15.1506 75.8705 14.8052 76.3623 14.4808C76.8542 14.1564 77.4559 13.8738 78.1675 13.6331C78.8896 13.3924 79.7268 13.1988 80.6792 13.0523C81.6315 12.8953 82.7199 12.8012 83.9443 12.7698V11.8279C83.9443 10.75 83.7141 9.95465 83.2536 9.44186C82.7931 8.9186 82.1286 8.65698 81.26 8.65698C80.6321 8.65698 80.1088 8.73023 79.6902 8.87674C79.2821 9.02325 78.921 9.1907 78.6071 9.37907C78.2931 9.55697 78.0053 9.71918 77.7437 9.8657C77.4925 10.0122 77.21 10.0855 76.896 10.0855C76.6239 10.0855 76.3937 10.0174 76.2053 9.88139C76.017 9.73488 75.8652 9.56744 75.7501 9.37907L75.0594 8.13895Z" fill="white"/>
</svg>
